<svg class="svg-icon" style="width: 1em; height: 1em;vertical-align: middle;fill: currentColor;overflow: hidden;" viewBox="0 0 726 726" version="1.1" xmlns="http://www.w3.org/2000/svg"><path d="M726.696236 445.018108c-5.000203 0-9.583723 0.833367-13.750559 2.083418-4.58352 1.458393-8.542014 3.750153-12.292167 6.458596L675.027467 472.93591v-32.084638c0-12.083825-4.791862-22.917599-12.500509-30.834588-7.708647-7.708647-18.542421-12.500509-30.834588-12.500509-5.416887 0-11.042116 0.833367-16.042319 2.708444-5.000203 1.666734-10.000407 4.375178-14.375585 7.916988l-16.875687 13.125534-7.916989-19.792472c-3.541811-8.750356-8.958698-15.625636-15.833977-20.417497-6.87528-4.791862-15.208952-7.291963-23.750967-7.291963-5.208545 0-9.583723 0.833367-13.750559 2.083418-4.58352 1.458393-8.542014 3.750153-12.292167 6.458596l-25.417701 18.959105v-150.422788c0-12.292167-4.791862-22.917599-12.500509-30.834588-7.708647-7.708647-18.542421-12.500509-30.834588-12.500508-12.083825 0-22.917599 4.791862-30.834588 12.500508-7.708647 7.708647-12.500509 18.542421-12.500508 30.834588V497.936928l-26.667752-24.16765c-22.500916-20.417497-46.04354-38.334893-67.086063-46.876908-17.084028-7.083622-32.501322-7.500305-43.75178 3.541811-22.917599 22.917599 9.583723 71.252899 55.002238 139.17233 23.959308 35.834791 51.252085 76.461445 75.628077 121.671617 24.16765 43.126755 52.710478 73.336317 83.545066 93.12879 34.168057 22.084232 71.461241 31.251272 108.754425 31.251271 51.252085 0 97.712309-20.625839 131.255341-54.168871s54.168871-80.003255 54.168871-131.25534v-142.297457c0-12.292167-4.791862-22.917599-12.500509-30.834588-7.291963-7.291963-18.125738-12.083825-30.417904-12.083825z" fill="#ffe8c7ff" /><path d="M726.696236 445.018108c-5.000203 0-9.583723 0.833367-13.750559 2.083418-4.58352 1.458393-8.542014 3.750153-12.292167 6.458596L675.027467 472.93591v-32.084638c0-12.083825-4.791862-22.917599-12.500509-30.834588-7.708647-7.708647-18.542421-12.500509-30.834588-12.500509-5.416887 0-11.042116 0.833367-16.042319 2.708444-5.000203 1.666734-10.000407 4.375178-14.375585 7.916988l-16.875687 13.125534-7.916989-19.792472c-3.541811-8.750356-8.958698-15.625636-15.833977-20.417497-6.87528-4.791862-15.208952-7.291963-23.750967-7.291963-5.208545 0-9.583723 0.833367-13.750559 2.083418-4.58352 1.458393-8.542014 3.750153-12.292167 6.458596l-25.417701 18.959105v-150.422788c0-12.292167-4.791862-22.917599-12.500509-30.834588-7.708647-7.708647-18.542421-12.500509-30.834588-12.500508-12.083825 0-22.917599 4.791862-30.834588 12.500508-7.708647 7.708647-12.500509 18.542421-12.500508 30.834588V497.936928l-26.667752-24.16765c-22.500916-20.417497-46.04354-38.334893-67.086063-46.876908-17.084028-7.083622-32.501322-7.500305-43.75178 3.541811 162.089929 171.881994 331.471821 239.176399 508.354018 199.799797v-142.297457c0-12.292167-4.791862-22.917599-12.500509-30.834588-7.291963-7.291963-18.125738-12.083825-30.417904-12.083825z" fill="#ffdca8ff" /></svg>